<svg width="16" height="16" viewBox="0 0 16 16" fill="none" xmlns="http://www.w3.org/2000/svg">
<path d="M8.62624 5.81301V1.5524C8.65264 1.4474 8.60278 1.19774 8.19221 1.04452C7.83442 0.910743 7.44437 1.10907 7.32706 1.23663C5.54301 3.50537 2.21147 8.2762 2.08146 8.51653C1.91625 8.81908 2.02867 9.0073 2.18508 9.14652C2.30141 9.25074 2.57904 9.31296 2.72763 9.31296H6.3495L5.57722 14.524C5.587 14.6446 5.71408 14.9051 6.12857 14.9844C6.54403 15.063 6.82948 14.825 6.9204 14.6967L12.8415 6.72455C12.9275 6.61955 13.1054 6.34034 12.9158 6.09456C12.8434 6.00352 12.7419 5.92945 12.6216 5.87997C12.5014 5.83049 12.3667 5.80738 12.2315 5.81301H8.62624Z" fill="black"/>
</svg>
