<svg width="16" height="16" viewBox="0 0 16 16" fill="none" xmlns="http://www.w3.org/2000/svg">
<path d="M13.5 14C13.4343 14.0001 13.3693 13.9872 13.3086 13.962C13.248 13.9369 13.1929 13.9 13.1466 13.8534L2.14657 2.85342C2.05676 2.75889 2.00744 2.63301 2.0091 2.50263C2.01077 2.37225 2.06331 2.24768 2.15551 2.15548C2.24771 2.06328 2.37228 2.01074 2.50266 2.00907C2.63304 2.0074 2.75892 2.05673 2.85345 2.14654L13.8534 13.1465C13.9233 13.2165 13.9709 13.3055 13.9902 13.4025C14.0095 13.4995 13.9996 13.6 13.9617 13.6913C13.9239 13.7826 13.8599 13.8607 13.7777 13.9156C13.6955 13.9706 13.5989 13.9999 13.5 14ZM13.4844 6.37498C13.4567 6.26761 13.394 6.1725 13.3064 6.10462C13.2187 6.03673 13.1109 5.99992 13 5.99998H9.5997L10.4813 1.17592C10.4828 1.16654 10.4844 1.15748 10.4853 1.1481C10.5012 1.02302 10.4757 0.89616 10.4126 0.786969C10.3496 0.677778 10.2524 0.592274 10.1361 0.543554C10.0198 0.494834 9.89077 0.485585 9.7687 0.517224C9.64664 0.548864 9.53832 0.619646 9.46032 0.718729L6.5672 4.2956C6.54776 4.31966 6.53793 4.35006 6.5396 4.38094C6.54128 4.41182 6.55434 4.44098 6.57626 4.46279L11.295 9.18154C11.3074 9.19395 11.3223 9.20361 11.3386 9.2099C11.355 9.21619 11.3725 9.21896 11.39 9.21805C11.4075 9.21714 11.4246 9.21255 11.4402 9.20459C11.4558 9.19663 11.4696 9.18548 11.4806 9.17185L13.3806 6.8231C13.4317 6.76169 13.4677 6.68918 13.4857 6.61136C13.5037 6.53354 13.5033 6.45259 13.4844 6.37498ZM9.42407 11.5372L4.70532 6.81842C4.69294 6.80606 4.67811 6.79645 4.66178 6.79019C4.64544 6.78393 4.62798 6.78117 4.61052 6.78208C4.59305 6.78299 4.57597 6.78756 4.56038 6.79549C4.54479 6.80342 4.53104 6.81453 4.52001 6.8281L2.61876 9.17623C2.5677 9.23776 2.53177 9.31041 2.51386 9.38835C2.49595 9.46628 2.49656 9.54732 2.51564 9.62498C2.54336 9.73235 2.60599 9.82746 2.69367 9.89534C2.78136 9.96323 2.88912 10 3.00001 9.99998H6.40095L5.52314 14.8237V14.8272C5.50147 14.9529 5.52229 15.0822 5.5823 15.1948C5.64232 15.3073 5.73811 15.3967 5.85456 15.4487C5.97101 15.5008 6.10148 15.5126 6.22537 15.4823C6.34927 15.4519 6.45954 15.3812 6.53876 15.2812L9.43282 11.7044C9.4523 11.6803 9.46219 11.65 9.46057 11.6191C9.45896 11.5882 9.44595 11.559 9.42407 11.5372Z" fill="black"/>
</svg>
