<svg width="16" height="16" viewBox="0 0 16 16" fill="none" xmlns="http://www.w3.org/2000/svg">
<path d="M0.940294 3.50062C1.52231 4.85431 2.50486 6.19325 3.87979 6.77038C4.03673 6.83577 4.21493 6.88482 4.39804 6.92569C4.76425 6.37964 5.18441 5.93658 5.67651 5.57365C6.09992 5.26303 6.54299 5.01943 6.9991 4.82814C6.86831 4.73658 6.73099 4.65321 6.58711 4.578C6.01491 4.27882 5.39531 4.01561 4.79203 3.73277C5.35932 3.88645 6.01 3.94367 6.55278 4.14149C6.8912 4.26576 7.20346 4.43742 7.49446 4.64178C8.36259 4.34585 9.26995 4.20362 10.1756 4.09573C9.44161 2.87612 7.87539 1.89683 6.69501 1.45378C5.46232 0.991099 4.06614 0.933879 2.69449 0.791662C1.85417 0.704997 0.940277 0.391119 0.271616 0.0249083C0.119574 -0.05847 -0.0422781 0.0804938 0.0100376 0.248885C0.338662 1.30009 0.505419 2.49027 0.940294 3.50062Z" fill="white" fill-opacity="0.7"/>
<path d="M15.4334 3.34029C13.8869 4.18061 12.113 4.28361 10.3752 4.48306C9.52671 4.58116 8.68637 4.70212 7.88691 4.9441C7.71361 4.9964 7.54033 5.05527 7.37029 5.12066C6.86512 5.31358 6.37793 5.56698 5.91853 5.9054C5.48693 6.22255 5.1338 6.59858 4.83625 7.0122C4.36214 7.67267 4.0319 8.43289 3.76051 9.22254C3.26515 10.6563 3.03791 12.18 3.08205 13.6955C3.10003 14.3103 3.10984 14.9495 3.26188 15.5495C3.29621 15.6819 3.32891 15.8503 3.43191 15.9484C3.56597 16.0775 3.80629 15.9451 3.75234 15.7571C3.36324 14.4312 3.6052 12.8814 4.14307 11.6144C4.76105 10.1577 5.9545 9.29119 7.4128 8.76315C7.80026 8.62255 8.19591 8.49993 8.59807 8.38386C8.60625 8.3806 8.61442 8.3806 8.62259 8.3806C8.7027 8.3806 8.73704 8.4983 8.65366 8.53592C8.17955 8.75008 7.70871 8.96589 7.26074 9.19967C5.06675 10.3441 4.10872 13.0089 4.93106 13.0089C4.99811 13.0089 5.07656 12.9909 5.16648 12.9533C6.43513 12.4285 7.94248 12.4236 9.33701 12.1653C9.82747 12.0754 10.3049 11.9528 10.7528 11.7664C12.5316 11.0242 13.8035 9.57244 14.5604 7.8264C15.1244 6.52341 15.3435 4.985 15.7702 3.63132C15.8258 3.45802 15.7032 3.30926 15.5528 3.30926C15.5152 3.3076 15.4743 3.31742 15.4334 3.34029Z" fill="white"/>
</svg>
