<svg width="17" height="12" viewBox="0 0 17 12" fill="none" xmlns="http://www.w3.org/2000/svg">
<path d="M16.9976 10.3547C16.9964 10.3178 16.995 10.2807 16.9938 10.2434C16.9924 10.2062 16.991 10.1688 16.9897 10.1313L16.9886 10.1032L16.988 10.0891L16.9879 10.0855L16.9875 10.0541L16.9874 10.0526L16.987 10.0468L16.9834 10.0001C16.9785 9.93784 16.9737 9.87532 16.9688 9.81279L16.9651 9.76546L16.9596 9.70408C16.9557 9.66327 16.9518 9.62247 16.948 9.58175C16.944 9.54112 16.94 9.50053 16.936 9.46009C16.934 9.43988 16.9319 9.41972 16.9299 9.39959C16.9274 9.38096 16.925 9.36236 16.9225 9.34377C16.9021 9.19628 16.8839 9.05133 16.8579 8.91199C16.8456 8.84227 16.8343 8.77371 16.8216 8.70689C16.8077 8.64023 16.7941 8.57506 16.7808 8.51159C16.7557 8.38457 16.7242 8.26595 16.6977 8.15629C16.6909 8.12893 16.6842 8.10208 16.6777 8.0759C16.6705 8.04983 16.6634 8.02442 16.6565 7.9996C16.6425 7.9501 16.6293 7.90313 16.6168 7.85903C16.6041 7.815 16.5929 7.77366 16.5812 7.73576C16.5691 7.69798 16.558 7.66327 16.548 7.63191C16.5332 7.58585 16.5207 7.54706 16.5108 7.5164C16.4963 7.47115 16.4484 7.4457 16.4027 7.45873L13.5286 8.27779C13.4848 8.29026 13.4577 8.33389 13.466 8.37867C13.4691 8.39538 13.4727 8.41453 13.4767 8.43595C13.4808 8.45751 13.4853 8.48142 13.4903 8.50742C13.4949 8.53349 13.4986 8.56205 13.5033 8.59224C13.5079 8.62247 13.5128 8.65466 13.518 8.68857C13.5205 8.70552 13.5235 8.72278 13.5258 8.74064C13.5279 8.75854 13.53 8.77688 13.5321 8.79558C13.5401 8.87045 13.5521 8.95073 13.5574 9.0368C13.5609 9.07963 13.5646 9.12363 13.5683 9.16853C13.5711 9.21359 13.5725 9.25975 13.5749 9.30648C13.5811 9.39976 13.5799 9.4969 13.5817 9.59485L13.5821 9.63134L13.5808 9.66364C13.5801 9.68517 13.5793 9.70673 13.5786 9.72837C13.578 9.74989 13.5775 9.77149 13.5769 9.79313L13.5762 9.82546L13.5742 9.87203C13.5716 9.93469 13.5689 9.99733 13.5662 10.0597L13.5642 10.1065L13.5639 10.1123L13.5639 10.1138C13.5639 10.1208 13.5633 10.0581 13.5635 10.0852L13.5633 10.0875L13.5624 10.0967L13.5607 10.1152C13.5585 10.1397 13.5563 10.1642 13.5541 10.1886C13.552 10.2129 13.5498 10.2372 13.5477 10.2613C13.5449 10.2853 13.542 10.3092 13.5392 10.3329C13.5331 10.3803 13.5293 10.4273 13.5218 10.4731C13.5151 10.5189 13.5086 10.5638 13.5023 10.6079C13.4946 10.6517 13.4872 10.6945 13.48 10.7361C13.4734 10.7778 13.4646 10.818 13.4568 10.8569C13.4487 10.8956 13.4422 10.9333 13.4337 10.9691C13.4255 11.0048 13.4176 11.039 13.41 11.0716C13.4063 11.0877 13.4027 11.1033 13.3992 11.1186C13.3956 11.1316 13.3921 11.1443 13.3887 11.1566C13.3867 11.1641 13.3848 11.1712 13.3828 11.1785H16.898C16.9451 11.1785 16.9843 11.1415 16.9861 11.0944C16.9862 11.0941 16.9862 11.0939 16.9862 11.0936C16.9891 11.0281 16.9921 10.9609 16.9952 10.8922C16.9965 10.8235 16.9978 10.7534 16.9992 10.6821C17.0012 10.6108 16.999 10.5384 16.9988 10.4652C16.9984 10.4286 16.998 10.3917 16.9976 10.3547Z" fill="white" fill-opacity="0.7"/>
<path d="M16.0836 6.66516C16.1308 6.64618 16.1523 6.59156 16.1306 6.54563C16.1209 6.52521 16.1096 6.50134 16.0968 6.47434C16.0847 6.44896 16.0714 6.42087 16.0569 6.39028C16.0381 6.35204 16.0178 6.31071 15.9961 6.26652C15.9743 6.22252 15.951 6.17569 15.9265 6.12634C15.914 6.10068 15.9018 6.07951 15.889 6.05542C15.8763 6.03187 15.8632 6.00778 15.8499 5.98318C15.8231 5.93408 15.7957 5.88274 15.7663 5.83016C15.7359 5.77816 15.7045 5.72437 15.6723 5.66907C15.6561 5.6415 15.6397 5.61353 15.6231 5.58525C15.6057 5.55741 15.5881 5.52923 15.5704 5.50074C15.5346 5.44399 15.4981 5.386 15.461 5.32705C15.3827 5.21163 15.3047 5.09091 15.2177 4.97343C15.1963 4.94385 15.1748 4.91417 15.1533 4.88439L15.1209 4.83976L15.0872 4.79587C15.0421 4.73748 14.9968 4.67889 14.9515 4.62028C14.9055 4.56236 14.8578 4.50565 14.8111 4.44873C14.7874 4.42045 14.7646 4.39177 14.7404 4.36414C14.7163 4.3366 14.6922 4.30913 14.6682 4.28177C14.6441 4.25451 14.6202 4.22732 14.5964 4.20028C14.5727 4.17313 14.5488 4.14645 14.5242 4.12064C14.4755 4.06873 14.4273 4.01746 14.38 3.96702C14.3326 3.91673 14.2835 3.86947 14.2367 3.82223C14.1897 3.77524 14.1439 3.72909 14.0972 3.68623C14.051 3.643 14.0061 3.60095 13.9626 3.56025C13.9194 3.51947 13.8752 3.48243 13.834 3.44575C13.7925 3.40946 13.7528 3.37469 13.7149 3.34162C13.6761 3.30964 13.6393 3.27933 13.6047 3.25084C13.5701 3.22246 13.5378 3.1959 13.5078 3.17135C13.4778 3.14689 13.4491 3.12568 13.4239 3.10591C13.387 3.07765 13.3559 3.05378 13.3312 3.03481C13.2936 3.00589 13.2399 3.01207 13.2096 3.0487L11.667 4.91594C11.6379 4.95116 11.6404 5.00262 11.6728 5.03476C11.6857 5.0475 11.7006 5.06225 11.7174 5.07883C11.7334 5.09496 11.7518 5.11203 11.7707 5.13196C11.7895 5.15188 11.8099 5.17344 11.8317 5.19646C11.8535 5.21936 11.8767 5.24373 11.9011 5.26943C11.9247 5.29595 11.9495 5.32388 11.9753 5.353C12.0009 5.38238 12.0288 5.41155 12.0553 5.44408C12.0821 5.47629 12.1098 5.50958 12.1383 5.54381C12.1673 5.57742 12.195 5.6139 12.2236 5.65077C12.252 5.68788 12.2823 5.72448 12.3108 5.76372C12.3393 5.80284 12.3683 5.8426 12.3976 5.88286C12.4126 5.90267 12.4268 5.92334 12.4407 5.94431C12.4549 5.96514 12.4691 5.98604 12.4834 6.00705C12.4976 6.02795 12.512 6.04896 12.5264 6.07004C12.5407 6.09112 12.5539 6.11317 12.5677 6.13473C12.595 6.17825 12.6232 6.22112 12.65 6.26495C12.6761 6.3092 12.7022 6.35347 12.7282 6.39755L12.7477 6.43044L12.7659 6.46403C12.7782 6.48632 12.7903 6.50859 12.8024 6.53072C12.8524 6.61821 12.8946 6.70841 12.9388 6.79316C12.959 6.83661 12.9789 6.87931 12.9984 6.92115C13.0081 6.94198 13.0178 6.96259 13.0273 6.98294C13.0361 7.00366 13.0448 7.02411 13.0534 7.04432C13.0707 7.08451 13.0874 7.12366 13.1037 7.16147C13.1187 7.19982 13.1332 7.23686 13.1471 7.2724C13.1541 7.29015 13.1609 7.30753 13.1676 7.32451C13.1739 7.34108 13.1817 7.35901 13.1859 7.37281C13.1958 7.40178 13.2052 7.42929 13.214 7.45513C13.223 7.48079 13.2315 7.50478 13.2393 7.52699C13.2496 7.55761 13.259 7.58567 13.2675 7.61104C13.2769 7.63939 13.2853 7.66444 13.2924 7.68591C13.3085 7.7341 13.3619 7.75867 13.409 7.73974L16.0836 6.66516Z" fill="white" fill-opacity="0.7"/>
<path d="M8.22815 3.32988C8.25152 3.33306 8.27736 3.33659 8.30553 3.34044C8.33352 3.3453 8.36379 3.35058 8.39613 3.35622C8.42841 3.36177 8.46277 3.36765 8.49897 3.37388C8.53043 3.37911 8.56301 3.38669 8.59689 3.39378L9.57042 1.40242C9.52216 1.39489 9.47429 1.38741 9.42739 1.38009C9.39525 1.37531 9.36362 1.36982 9.3321 1.36588C9.30059 1.36207 9.26945 1.35829 9.23873 1.35457C9.17737 1.34729 9.11769 1.34018 9.05998 1.33333C9.00211 1.32837 8.94619 1.32358 8.89252 1.31898C8.83884 1.31486 8.78764 1.30944 8.73863 1.30711C8.68971 1.30472 8.64329 1.30243 8.59968 1.30028C8.55611 1.29822 8.51534 1.29631 8.47768 1.29452C8.43997 1.29391 8.40533 1.29335 8.37403 1.29285C8.33001 1.29232 8.29265 1.29187 8.26269 1.29151C8.21518 1.29094 8.17587 1.32807 8.17359 1.37553L8.08482 3.22901C8.08264 3.27467 8.11558 3.31443 8.16087 3.32064C8.18016 3.32329 8.20265 3.32639 8.22815 3.32988Z" fill="white" fill-opacity="0.7"/>
<path d="M10.8447 4.35047C10.8709 4.3695 10.8957 4.38753 10.919 4.40451C10.9423 4.42123 10.9641 4.43687 10.9843 4.45134C10.9931 4.45736 11.0075 4.46831 11.0193 4.47708C11.0315 4.48615 11.0431 4.49479 11.054 4.50299C11.078 4.52087 11.0991 4.53665 11.1172 4.55016C11.158 4.58054 11.2158 4.57027 11.2437 4.52779L12.5147 2.59167C12.5426 2.54918 12.5291 2.49205 12.485 2.46676C12.4654 2.45552 12.4425 2.44239 12.4166 2.42752C12.4047 2.42068 12.3921 2.41351 12.379 2.40596C12.3646 2.39785 12.3497 2.38937 12.334 2.38053C12.2979 2.36059 12.2588 2.33907 12.217 2.31604C12.1752 2.29326 12.1307 2.26903 12.0838 2.24346C12.0391 2.22107 11.9922 2.19754 11.9431 2.17297C11.8939 2.14895 11.8437 2.12224 11.7899 2.09799C11.7363 2.07344 11.6809 2.04805 11.6239 2.02194C11.5674 1.99524 11.5077 1.97099 11.4471 1.94555C11.3863 1.92064 11.325 1.8934 11.2611 1.86937C11.2449 1.86323 11.2285 1.85702 11.2121 1.85083L10.6638 4.23078C10.6941 4.24982 10.7227 4.27 10.7508 4.28822C10.7836 4.30992 10.8149 4.3307 10.8447 4.35047Z" fill="white" fill-opacity="0.7"/>
<path d="M6.52148 3.32038C6.54603 3.31714 6.57013 3.31313 6.5942 3.31059C6.61827 3.30816 6.64205 3.30574 6.6655 3.30335C6.71229 3.2985 6.7578 3.29377 6.80184 3.28919C6.846 3.28624 6.88868 3.28338 6.92964 3.28062C6.95007 3.27922 6.97008 3.27786 6.98964 3.27652C7.00915 3.27522 7.02869 3.27355 7.04544 3.27353C7.07995 3.27262 7.11272 3.27178 7.14348 3.27097C7.17415 3.27001 7.20282 3.2691 7.22938 3.26825C7.2621 3.26804 7.29217 3.26784 7.3193 3.26766C7.34918 3.2675 7.37559 3.26736 7.39818 3.26723C7.449 3.26697 7.48894 3.22393 7.48561 3.17322L7.37119 1.42723C7.36784 1.37652 7.32264 1.33906 7.27223 1.34543C7.24981 1.34826 7.22363 1.35157 7.19398 1.35531C7.16649 1.3588 7.13605 1.36268 7.10291 1.36691C7.06376 1.37272 7.02142 1.37899 6.97616 1.3857C6.93105 1.39257 6.88302 1.39989 6.8324 1.4076C6.80649 1.41125 6.78263 1.4161 6.7576 1.42082C6.73264 1.42558 6.7071 1.43047 6.68103 1.43544C6.62897 1.4455 6.57477 1.45599 6.51862 1.46683C6.46291 1.47952 6.40529 1.49265 6.34607 1.50613C6.31653 1.51291 6.28657 1.5198 6.25626 1.52678C6.22598 1.53386 6.19562 1.54253 6.16482 1.55049C6.10335 1.56686 6.04059 1.58359 5.97675 1.60059C5.91354 1.61965 5.84928 1.63901 5.78425 1.65863C5.75183 1.66867 5.71906 1.67813 5.68649 1.68885C5.65407 1.69993 5.62141 1.71104 5.58866 1.72222C5.55597 1.73343 5.52315 1.74466 5.49024 1.75596C5.45732 1.76716 5.42434 1.77841 5.3918 1.79124C5.32658 1.81614 5.2611 1.84113 5.19562 1.86613C5.13043 1.89165 5.06632 1.91992 5.00206 1.94668C4.97003 1.96033 4.9379 1.9735 4.90625 1.98751C4.87481 2.00203 4.84347 2.01648 4.81225 2.03091C4.78109 2.04533 4.75005 2.05972 4.71918 2.07402C4.68831 2.0883 4.65757 2.10236 4.62768 2.11788C4.5677 2.14815 4.50845 2.17807 4.45018 2.20749C4.3919 2.23671 4.33636 2.26896 4.28119 2.29865C4.22627 2.32889 4.17226 2.35774 4.12132 2.38882C4.07008 2.4192 4.02025 2.44878 3.97204 2.47738C3.92369 2.50558 3.87884 2.53604 3.83489 2.56356C3.79125 2.59153 3.74943 2.61835 3.70965 2.64385C3.67073 2.67057 3.63379 2.69591 3.59909 2.71973C3.56449 2.74356 3.5321 2.76586 3.50214 2.78649C3.47222 2.80713 3.44576 2.82758 3.42136 2.84526C3.38831 2.86967 3.36009 2.8905 3.33726 2.90735C3.29913 2.9355 3.29018 2.98867 3.31684 3.02787L4.04185 4.09379C4.06765 4.13173 4.1181 4.14363 4.15805 4.12106C4.17647 4.11068 4.19823 4.09839 4.22305 4.0844C4.24468 4.07242 4.26809 4.05829 4.29452 4.04453C4.32093 4.03075 4.34949 4.01589 4.38 4C4.41042 3.9841 4.44281 3.96717 4.47694 3.94933C4.51165 3.93268 4.54814 3.91518 4.58622 3.89693C4.62448 3.87911 4.66329 3.85869 4.70515 3.84088C4.74668 3.82265 4.78963 3.80381 4.83379 3.78443C4.87751 3.7643 4.92382 3.74671 4.97067 3.72792C5.01777 3.70966 5.06494 3.68901 5.11435 3.67156C5.16354 3.65383 5.21357 3.63581 5.2642 3.61756C5.2893 3.60802 5.31514 3.59995 5.34104 3.59168C5.36688 3.58336 5.39286 3.57501 5.41893 3.56661C5.44495 3.5582 5.47108 3.54976 5.49728 3.54127C5.52362 3.53327 5.55033 3.52612 5.57687 3.51846C5.63018 3.50371 5.68313 3.48736 5.73681 3.47365C5.79053 3.46035 5.84425 3.44706 5.89776 3.43383C5.92431 3.42677 5.95126 3.42124 5.97809 3.41571C6.00486 3.41007 6.03156 3.40445 6.05817 3.39885C6.08469 3.39321 6.11112 3.38761 6.13742 3.38203C6.16378 3.37677 6.19028 3.37271 6.21643 3.368C6.26872 3.35893 6.32036 3.34994 6.37118 3.34114C6.42218 3.33411 6.47234 3.32716 6.52148 3.32038Z" fill="white" fill-opacity="0.7"/>
<path d="M1.57788 4.69831C1.55888 4.72519 1.5398 4.75219 1.52064 4.7793C1.50153 4.80639 1.48234 4.83359 1.46309 4.86088C1.44392 4.88821 1.42599 4.91655 1.40735 4.94443C1.37059 5.00057 1.33298 5.05628 1.29697 5.11304C1.26181 5.17028 1.22665 5.22753 1.19163 5.28456L1.1655 5.32726L1.1407 5.37065C1.12422 5.3995 1.10779 5.42829 1.09142 5.45694C1.02449 5.57062 0.966351 5.68683 0.907263 5.79721C0.879759 5.85349 0.852702 5.90884 0.826218 5.96302C0.813083 5.99008 0.800073 6.01688 0.787243 6.04333C0.775164 6.07014 0.763246 6.09664 0.751472 6.1228C0.728029 6.17502 0.705232 6.22584 0.683167 6.27498C0.662589 6.32475 0.64269 6.37281 0.623596 6.41894C0.604878 6.46522 0.585964 6.50901 0.56984 6.55151C0.553932 6.59404 0.538829 6.63442 0.524621 6.67233C0.510484 6.71022 0.49726 6.74567 0.485038 6.77845C0.473746 6.81156 0.463385 6.84196 0.454008 6.86943C0.44184 6.90554 0.431389 6.93653 0.422853 6.96191C0.407732 7.00675 0.430727 7.05541 0.474927 7.07235L1.14974 7.33106C1.19268 7.34752 1.24105 7.3283 1.2609 7.2868C1.27074 7.26626 1.2825 7.24166 1.29601 7.2134C1.30721 7.19012 1.31959 7.16433 1.3331 7.13626C1.34745 7.10857 1.36297 7.07869 1.37956 7.04671C1.39609 7.01484 1.41366 6.98086 1.4322 6.94507C1.45089 6.90939 1.47239 6.87279 1.49374 6.83414C1.51536 6.7957 1.53789 6.75563 1.56121 6.71415C1.58578 6.67348 1.61117 6.63139 1.63729 6.58812C1.6503 6.56652 1.66349 6.54464 1.67684 6.52248C1.69089 6.50074 1.70512 6.47877 1.71948 6.45649C1.74822 6.41211 1.77759 6.3668 1.80745 6.32067C1.87091 6.23083 1.93297 6.13622 2.0031 6.04498C2.02022 6.02191 2.03742 5.99878 2.05467 5.97557L2.08053 5.94072L2.10762 5.90665C2.1437 5.86122 2.17991 5.81564 2.21613 5.77006C2.25301 5.72504 2.29129 5.68118 2.32849 5.63694C2.34736 5.61499 2.36546 5.59258 2.38477 5.57123C2.4041 5.54992 2.42335 5.52866 2.44254 5.50749C2.46168 5.48634 2.48074 5.46528 2.49971 5.44431C2.5185 5.42323 2.53747 5.40252 2.55717 5.38268C2.59593 5.34254 2.63423 5.30288 2.67189 5.26385C2.70949 5.2249 2.74873 5.18875 2.78578 5.15221C2.8231 5.11594 2.85921 5.08015 2.8964 5.04735C2.93298 5.01406 2.96855 4.98169 3.00298 4.95036C3.03712 4.91884 3.07231 4.89071 3.1048 4.86248C3.13751 4.83461 3.16886 4.80791 3.19868 4.78252C3.22795 4.75935 3.25573 4.73737 3.28182 4.71669C3.30776 4.69604 3.33205 4.67669 3.3545 4.6588C3.36481 4.65028 3.37877 4.64008 3.39056 4.63111C3.40266 4.62197 3.4142 4.61327 3.42515 4.60502C3.44901 4.587 3.47007 4.57111 3.48811 4.55751C3.52867 4.52689 3.53495 4.46852 3.50196 4.42987L2.73365 3.52978C2.70065 3.49113 2.64201 3.48817 2.60541 3.52343C2.58915 3.5391 2.57013 3.55741 2.54862 3.57815C2.53874 3.58765 2.52832 3.59769 2.51741 3.60819C2.5063 3.61899 2.49572 3.62881 2.48194 3.64289C2.4556 3.66947 2.42713 3.69822 2.39669 3.72893C2.36641 3.75966 2.33418 3.79235 2.3002 3.82682C2.26862 3.86103 2.23541 3.897 2.20076 3.93452C2.16655 3.97234 2.12965 4.01043 2.09395 4.0522C2.05811 4.09375 2.02106 4.13672 1.98297 4.18086C1.9444 4.22449 1.90709 4.27136 1.86871 4.3189C1.83061 4.3667 1.79045 4.41439 1.75214 4.46492C1.71394 4.51546 1.67511 4.56684 1.63581 4.61887C1.61584 4.64466 1.59674 4.67129 1.57788 4.69831Z" fill="white" fill-opacity="0.7"/>
<path d="M0.181721 7.85427C0.177229 7.87639 0.171968 7.9023 0.166009 7.93157C0.160551 7.95845 0.154503 7.98823 0.147918 8.02063C0.141458 8.05378 0.135141 8.09291 0.12809 8.13285C0.121147 8.17319 0.113774 8.2161 0.106008 8.26134C0.10225 8.28388 0.0979556 8.30718 0.0943945 8.33068C0.0912272 8.35403 0.0880061 8.3779 0.0846956 8.40226C0.0720977 8.49984 0.0555094 8.60483 0.0459536 8.71699C0.0404062 8.77288 0.0347157 8.83027 0.0288999 8.88894C0.0241042 8.94769 0.020901 9.00785 0.0167673 9.06884C0.00710419 9.19072 0.00533262 9.31713 0.00130631 9.44501L0 9.49307L0.000232631 9.54133C0.000411578 9.57356 0.000590525 9.60584 0.000769472 9.63822C0.000966314 9.67055 0.00116316 9.70294 0.0013421 9.73535L0.00164631 9.78397L0.00350736 9.83262C0.00613788 9.89735 0.0087684 9.96211 0.0113989 10.0266L0.0133852 10.0748L0.0139937 10.0905L0.0148526 10.1021L0.0165705 10.1253C0.018861 10.1563 0.0211336 10.1872 0.0234063 10.218C0.0256789 10.2488 0.0279515 10.2795 0.0301884 10.31C0.0332841 10.3418 0.0363441 10.3735 0.039422 10.405C0.0425178 10.4364 0.0455957 10.4677 0.0486557 10.4988C0.0501946 10.5142 0.0517336 10.5297 0.0532725 10.5451C0.0551872 10.5602 0.057102 10.5753 0.0589988 10.5903C0.066622 10.6503 0.0741198 10.7092 0.0814567 10.767C0.0903145 10.8244 0.0989756 10.8807 0.107386 10.9354C0.11526 10.9901 0.125406 11.043 0.134729 11.0942C0.135499 11.0983 0.136268 11.1023 0.13702 11.1064C0.144804 11.1482 0.181202 11.1785 0.223737 11.1785H0.461576C0.512361 11.1785 0.55266 11.1358 0.549671 11.0851C0.548866 11.0716 0.548043 11.0579 0.54713 11.0441C0.54416 10.9948 0.540581 10.9439 0.539436 10.8914C0.537718 10.839 0.535964 10.7852 0.534157 10.7302C0.533817 10.6752 0.533477 10.619 0.533137 10.5619C0.533047 10.5476 0.532958 10.5333 0.532868 10.519C0.533173 10.5048 0.533495 10.4906 0.533817 10.4763C0.534443 10.4478 0.535069 10.4191 0.535714 10.3902C0.53634 10.3613 0.536984 10.3323 0.537628 10.3031C0.53906 10.2726 0.540474 10.2418 0.541923 10.211C0.543355 10.1802 0.544804 10.1492 0.546236 10.1182L0.547327 10.0949L0.547864 10.0832L0.547936 10.0817C0.547936 10.078 0.548007 10.0852 0.548043 10.0839L0.548258 10.0811L0.548705 10.0755L0.55232 10.0303C0.557116 9.97013 0.561929 9.90973 0.566761 9.8493L0.570447 9.80408L0.575655 9.75897C0.579126 9.72894 0.58258 9.69895 0.586033 9.66901C0.589469 9.63909 0.592905 9.60924 0.596323 9.5795L0.601423 9.53498L0.608026 9.49076C0.626136 9.37319 0.641525 9.25754 0.664072 9.14681C0.674648 9.09133 0.684114 9.03675 0.694976 8.98362C0.706805 8.93071 0.718365 8.87894 0.729621 8.82855C0.75045 8.7276 0.777453 8.63376 0.799428 8.54678C0.805065 8.52507 0.810576 8.50379 0.815962 8.48304C0.821653 8.46258 0.827791 8.44322 0.833446 8.42404C0.844845 8.38587 0.855671 8.34967 0.865835 8.31561C0.876232 8.28129 0.884768 8.2506 0.894717 8.2198C0.90515 8.18838 0.914705 8.15959 0.923366 8.13355C0.932779 8.10517 0.9411 8.08012 0.948222 8.05864C0.964238 8.01045 0.936269 7.95879 0.887165 7.94571L0.290932 7.78671C0.241811 7.7736 0.191849 7.80447 0.181721 7.85427Z" fill="white" fill-opacity="0.7"/>
<path d="M6.93103 10.9445C7.12501 11.0394 7.3305 11.0843 7.5328 11.0843C8.04062 11.0843 8.52864 10.8014 8.7667 10.3144C8.81254 10.2207 8.84803 10.1172 8.87111 10.0198L10.2593 3.99432L10.788 1.69964L11.1156 0.278137C11.1537 0.112701 11.0221 0 10.89 0C10.8128 0 10.7353 0.0386348 10.6916 0.127911L10.0251 1.49118L9.04194 3.50229L6.3009 9.10889C5.968 9.7898 6.25013 10.6117 6.93103 10.9445ZM7.58369 9.00415C7.95517 9.00415 8.25632 9.30528 8.25632 9.67678C8.25632 10.0482 7.95517 10.3494 7.58369 10.3494C7.21221 10.3494 6.91106 10.0482 6.91106 9.67678C6.91106 9.30525 7.21221 9.00415 7.58369 9.00415Z" fill="white"/>
</svg>
