<svg width="25" height="25" viewBox="0 0 25 25" fill="none" xmlns="http://www.w3.org/2000/svg">
<path d="M6.50081 3.04199H18.5085C18.442 2.22906 17.9489 1.78564 17.0384 1.78564H7.96146C7.06041 1.78564 6.55772 2.22906 6.50081 3.04199ZM4.56593 5.71172H20.4434C20.3105 4.83413 19.8553 4.33529 18.8499 4.33529H6.15936C5.15398 4.33529 4.69871 4.83413 4.56593 5.71172ZM5.68513 22.3214H19.3147C21.2875 22.3214 22.3213 21.3237 22.3213 19.4207V10.1182C22.3213 8.21518 21.2875 7.21749 19.3147 7.21749H5.68513C3.70282 7.21749 2.67847 8.20594 2.67847 10.1182V19.4207C2.67847 21.3237 3.70282 22.3214 5.68513 22.3214Z" fill="#BDBDBD"/>
</svg>
